<svg width="45" height="33" viewBox="0 0 45 33" fill="none" xmlns="http://www.w3.org/2000/svg">
<rect x="10.375" y="21" width="4" height="9" rx="2" fill="#E0E0E0"/>
<path d="M20.375 3H12.375C11.2704 3 10.375 3.89543 10.375 5V17C10.375 18.1046 11.2704 19 12.375 19H22.375V5C22.375 3.89543 21.4796 3 20.375 3Z" fill="#E0E0E0"/>
<path d="M33.8585 7H19.375V21C19.375 22.1046 20.2704 23 21.375 23H33.8585C34.5764 23 35.0604 22.2659 34.7776 21.6061L32.2841 15.7878C32.0685 15.2847 32.0685 14.7153 32.2841 14.2122L34.7776 8.39392C35.0604 7.73405 34.5764 7 33.8585 7Z" fill="#E0E0E0"/>
</svg>
