<svg width="44" height="44" viewBox="0 0 44 44" fill="none" xmlns="http://www.w3.org/2000/svg">
<path fill-rule="evenodd" clip-rule="evenodd" d="M22 11.1636C20.5691 11.1636 19.3464 12.1945 19.1046 13.6048L19.0919 13.6788L16.2477 15.3209L16.1774 15.2949C14.8352 14.7991 13.331 15.3426 12.6155 16.5818C11.9001 17.821 12.1815 19.3954 13.282 20.3099L13.3396 20.3577V23.642L13.2818 23.69C12.1813 24.6045 11.8999 26.1789 12.6153 27.4181C13.3308 28.6573 14.835 29.2008 16.1772 28.705L16.2477 28.6789L19.0919 30.3211L19.1046 30.3951C19.3464 31.8054 20.5691 32.8363 22 32.8363C23.4309 32.8363 24.6536 31.8054 24.8954 30.3951L24.9081 30.3208L27.7521 28.6789L27.8228 28.705C29.165 29.2008 30.6692 28.6573 31.3847 27.4181C32.1001 26.179 31.8186 24.6046 30.7182 23.69L30.6601 23.6418V20.358L30.718 20.3099C31.8184 19.3953 32.0999 17.8209 31.3845 16.5818C30.669 15.3426 29.1648 14.7991 27.8226 15.2949L27.752 15.321L24.9081 13.679L24.8954 13.6048C24.6536 12.1945 23.4309 11.1636 22 11.1636Z" fill="white"/>
<circle cx="22.0009" cy="22" r="3" fill="#616161"/>
</svg>
